<!-- Generator: Adobe Illustrator 19.0.0, SVG Export Plug-In . SVG Version: 6.00 Build 0)  -->
<svg style="enable-background:new 0 0 512 512" version="1.1" viewBox="0 0 512 512" xml:space="preserve" xmlns="http://www.w3.org/2000/svg"><g transform="translate(1 1)" style="fill:#750000;stroke:#590000"><g style="fill:#750000;stroke:#590000"><path d="m369.29 68.486v-32.915c0-20.114-16.457-36.571-36.572-36.571h-165.48c-20.114 0-35.657 16.457-35.657 36.571v33.829c-26.514 35.657-27.429 48.457-27.429 112.46 0 33.829 9.143 72.229 10.971 83.2-5.486 21.029 5.486 42.971 26.514 50.286 7.455 2.236 14.909 2.648 21.868 1.237 1.582-0.242 3.135-0.57 4.651-0.995 0.107 16.367 11.047 31.784 27.423 37.243l1.829 0.914c8.485 2.611 17.432 2.412 25.518-0.236 1.808-0.5 3.644-1.043 5.567-1.592 1.3-0.65 2.558-1.382 3.779-2.174 3.89 18.918 21.107 33.26 41.021 33.26 8.229 0 16.457-2.743 22.857-7.314v94.171c0 22.857 18.286 41.143 41.143 41.143s41.143-18.286 41.143-41.143v-256c24.686-19.2 27.429-39.314 27.429-67.657v-0.914c1e-3 -38.4-26.513-67.657-36.57-76.8zm-116.88 130.17c-12.904 16.678-22.632 32.143-26.664 42.627-1.017 2.415-1.723 4.938-2.164 7.521-1.706 8.942-0.37 17.784 3.432 25.232 3.212 7.563 8.186 14.413 14.275 19.361l-10.057 29.257c-1.829 5.486-5.486 10.057-10.971 12.8-4.571 2.743-10.971 2.743-16.457 0.914l-1.829-0.914c-5.486-1.829-10.057-5.486-12.8-10.971-0.297-0.594-0.556-1.189-0.792-1.783-1.566-4.511-1.687-9.59-0.123-14.674l6.4-18.286 28.445-84.521 0.813-2.336c4.571-11.886 16.457-17.371 28.343-13.714l1.829 0.914c0.899 0 2.677 0.884 3.606 1.783-1.802 2.267-3.566 4.534-5.286 6.79zm-42.207-10.402l-24.69 71.327-8.411 24.181c-4.713 11.585-17.331 16.904-29.071 13.292-11.886-3.657-18.286-16.457-13.714-29.257 0-0.899 0.22-1.799 0.336-2.698l31.664-91.473c1.829-5.486 6.4-10.057 11.886-12.8 2.743-1.829 6.4-2.743 10.057-2.743 2.743 0 4.571 0.914 8.229 0.914 5.486 1.829 10.057 6.4 12.8 11.886s2.743 11.885 0.914 17.371zm81.371 170.06c-4.571 3.657-10.057 6.4-16.457 6.4-12.8 0-23.771-10.057-23.771-22.857v-3.657l2.743-21.029c0-0.942-0.123-1.883-0.348-2.793l7.662-21.892c0.16-0.399 0.281-0.798 0.386-1.195 8.098-0.904 17.548-4.215 28.871-12.519 2.101-1.284 4.563-2.899 7.314-4.779v69.694c0 5.484-2.742 10.97-6.4 14.627zm45.715 134.4c-12.8 0-22.857-10.057-22.857-22.857v-126.17c0-0.914 0-0.914 1.829-0.914v-77.714c0-1.362-0.226-2.61-0.649-3.718 13.528-10.002 29.504-22.261 44.535-33.683v242.2c-1e-3 12.799-10.058 22.856-22.858 22.856zm50.285-347.43c0 27.429-1.829 41.143-22.857 55.771l-0.914 0.914c-29.257 21.943-67.657 52.114-83.2 62.171-14.629 9.143-26.514 11.886-33.829 6.4-0.963-0.803-1.807-1.782-2.539-2.883-2.699-6.336-3.428-13.514-1.118-19.06 4.571-10.971 17.371-30.171 34.743-51.2 1.063-1.417 1.709-2.971 1.948-4.557 20.593-24.338 43.644-46.677 54.738-51.215 4.571-1.829 6.4-7.314 4.571-11.886-1.829-4.571-7.314-6.4-11.886-4.571-13.321 5.709-36.542 27.758-57.688 52.36-2.882-1.954-5.968-3.494-9.055-4.817l-1.829-0.914c-10.502-3.653-21.459-2.744-30.709 1.699-2.893-13.845-12.848-26.072-26.891-30.956-10.057-3.657-21.029-2.743-31.086 1.829-10.057 5.486-17.371 13.714-21.029 23.771l-21.562 62.29c-2.607-14.644-4.953-32.33-4.953-48.575 0-64 0.914-71.314 25.6-104.23 1.829-1.829 1.829-4.571 1.829-6.4v-35.657c0-10.057 8.229-18.286 17.371-18.286h165.49c10.057 0 18.286 8.229 18.286 18.286v36.571c0 2.743 0.914 5.486 3.657 7.314 0 0 32 27.429 32.914 64.914v0.916z" style="fill:#750000;stroke:#590000"/></g></g></svg>
